<?xml version="1.0" ?><!DOCTYPE svg  PUBLIC '-//W3C//DTD SVG 1.1//EN'  'http://www.w3.org/Graphics/SVG/1.1/DTD/svg11.dtd'><svg enable-background="new 0 0 87 56" height="90px" id="Layer_1" version="1.1" viewBox="0 0 87 56" width="90px" xml:space="preserve" xmlns="http://www.w3.org/2000/svg" xmlns:xlink="http://www.w3.org/1999/xlink"><g><path d="M86,52.636C86,53.941,84.84,55,83.407,55H3.593C2.161,55,1,53.941,1,52.636V3.365C1,2.059,2.161,1,3.593,1   h79.814C84.84,1,86,2.059,86,3.365V52.636z" fill="#F1F2F2"/><path d="M25.136,31.625c-2.026,1.496-4.964,2.291-7.494,2.291c-3.545,0-6.738-1.311-9.154-3.492   c-0.19-0.171-0.021-0.404,0.208-0.271c2.606,1.518,5.83,2.432,9.159,2.432c2.246,0,4.715-0.467,6.986-1.432   C25.185,31.007,25.472,31.378,25.136,31.625z" fill="#FF9900"/><path d="M25.98,30.663c-0.259-0.332-1.713-0.157-2.367-0.079c-0.198,0.023-0.229-0.148-0.05-0.273   c1.16-0.813,3.061-0.58,3.281-0.308c0.223,0.274-0.058,2.181-1.145,3.09c-0.167,0.142-0.326,0.065-0.252-0.118   C25.691,32.363,26.239,30.995,25.98,30.663z" fill="#FF9900"/><path d="M23.659,24.554v-0.791c0-0.12,0.091-0.201,0.201-0.201h3.548c0.113,0,0.204,0.083,0.205,0.2v0.679   c0,0.114-0.097,0.263-0.267,0.498l-1.837,2.624c0.682-0.016,1.404,0.087,2.023,0.435c0.14,0.079,0.177,0.195,0.188,0.31v0.844   c0,0.117-0.127,0.252-0.261,0.182c-1.092-0.572-2.542-0.635-3.749,0.008c-0.124,0.064-0.252-0.066-0.252-0.185v-0.803   c0-0.128,0.002-0.349,0.132-0.544l2.129-3.055h-1.854C23.751,24.754,23.66,24.673,23.659,24.554z"/><path d="M10.717,29.498H9.638c-0.103-0.006-0.185-0.083-0.193-0.182l0.001-5.542c0-0.111,0.093-0.2,0.208-0.2h1.005   c0.105,0.006,0.19,0.085,0.196,0.187v0.723h0.021c0.262-0.699,0.755-1.025,1.42-1.025c0.675,0,1.098,0.326,1.401,1.025   c0.262-0.699,0.856-1.025,1.491-1.025c0.454,0,0.947,0.187,1.25,0.606c0.343,0.466,0.272,1.142,0.272,1.736l-0.001,3.496   c0,0.111-0.093,0.199-0.208,0.199h-1.079c-0.108-0.006-0.194-0.093-0.194-0.198v-2.938c0-0.232,0.02-0.815-0.03-1.037   c-0.081-0.373-0.322-0.479-0.635-0.479c-0.262,0-0.534,0.175-0.645,0.455c-0.111,0.279-0.101,0.746-0.101,1.061v2.937   c0,0.111-0.093,0.199-0.208,0.199h-1.078c-0.108-0.006-0.194-0.093-0.194-0.198l-0.001-2.938c0-0.617,0.101-1.527-0.665-1.527   c-0.776,0-0.746,0.887-0.746,1.527v2.937C10.925,29.41,10.832,29.498,10.717,29.498z"/><path d="M30.667,23.46c1.602,0,2.469,1.375,2.469,3.124c0,1.69-0.957,3.031-2.469,3.031c-1.572,0-2.428-1.376-2.428-3.09   C28.239,24.801,29.105,23.46,30.667,23.46z M30.677,24.591c-0.796,0-0.847,1.084-0.847,1.76c0,0.677-0.01,2.122,0.836,2.122   c0.836,0,0.876-1.166,0.876-1.877c0-0.466-0.02-1.025-0.161-1.469C31.261,24.742,31.02,24.591,30.677,24.591z"/><path d="M35.213,29.498h-1.076c-0.108-0.006-0.194-0.092-0.194-0.198l-0.001-5.542c0.009-0.102,0.099-0.182,0.208-0.182h1.001   c0.094,0.005,0.172,0.069,0.192,0.155v0.848h0.021c0.302-0.758,0.725-1.119,1.471-1.119c0.484,0,0.958,0.175,1.26,0.652   c0.282,0.443,0.282,1.189,0.282,1.726v3.486c-0.013,0.098-0.101,0.174-0.207,0.174h-1.082c-0.1-0.006-0.181-0.079-0.192-0.174   v-3.008c0-0.606,0.071-1.492-0.675-1.492c-0.262,0-0.504,0.175-0.625,0.442c-0.151,0.338-0.171,0.677-0.171,1.05v2.982   C35.421,29.41,35.328,29.498,35.213,29.498z"/><path d="M21.919,29.484c-0.071,0.063-0.174,0.066-0.255,0.023c-0.358-0.298-0.423-0.436-0.619-0.72   c-0.593,0.604-1.012,0.785-1.78,0.785c-0.909,0-1.615-0.562-1.615-1.683c0-0.876,0.474-1.472,1.151-1.764   c0.585-0.258,1.404-0.304,2.03-0.374v-0.141c0-0.257,0.02-0.561-0.131-0.782c-0.131-0.199-0.384-0.281-0.606-0.281   c-0.412,0-0.778,0.211-0.868,0.648c-0.019,0.098-0.089,0.193-0.188,0.198l-1.046-0.113c-0.088-0.021-0.187-0.091-0.161-0.226   c0.24-1.269,1.387-1.652,2.414-1.652c0.525,0,1.212,0.14,1.626,0.537c0.525,0.491,0.475,1.146,0.475,1.858v1.682   c0,0.506,0.21,0.728,0.407,1c0.069,0.099,0.084,0.213-0.003,0.288c-0.221,0.186-0.612,0.523-0.828,0.717H21.919z"/><path d="M7.769,29.484c-0.072,0.063-0.175,0.066-0.255,0.023c-0.359-0.298-0.423-0.436-0.619-0.72   c-0.592,0.604-1.012,0.785-1.779,0.785c-0.909,0-1.616-0.562-1.616-1.683c0-0.876,0.475-1.472,1.151-1.764   c0.586-0.258,1.404-0.304,2.03-0.374v-0.141c0-0.257,0.02-0.561-0.131-0.782c-0.131-0.199-0.384-0.281-0.605-0.281   c-0.412,0-0.778,0.211-0.868,0.648c-0.019,0.098-0.09,0.193-0.188,0.198l-1.046-0.113c-0.088-0.021-0.187-0.091-0.161-0.226   c0.24-1.269,1.387-1.652,2.414-1.652c0.525,0,1.211,0.14,1.625,0.537c0.525,0.491,0.475,1.146,0.475,1.858v1.682   c0,0.506,0.21,0.728,0.407,1c0.069,0.099,0.084,0.213-0.003,0.288c-0.22,0.186-0.612,0.523-0.828,0.717H7.769z"/><g><path d="M44.667,26.539c0,0.494-0.049,0.939-0.147,1.333c-0.099,0.395-0.242,0.729-0.435,1.004    c-0.19,0.274-0.427,0.487-0.709,0.636c-0.281,0.148-0.604,0.223-0.967,0.223c-0.154,0-0.297-0.016-0.428-0.049    c-0.132-0.035-0.26-0.086-0.385-0.158c-0.126-0.069-0.25-0.16-0.374-0.271c-0.123-0.108-0.255-0.237-0.394-0.384v2.831    c0,0.034-0.008,0.063-0.023,0.089c-0.015,0.023-0.04,0.045-0.075,0.063c-0.034,0.019-0.083,0.029-0.145,0.037    c-0.062,0.01-0.141,0.016-0.237,0.016c-0.093,0-0.17-0.006-0.231-0.016c-0.062-0.008-0.111-0.021-0.147-0.037    c-0.037-0.018-0.062-0.037-0.075-0.063c-0.014-0.025-0.021-0.055-0.021-0.089v-7.908c0-0.038,0.006-0.068,0.018-0.092    c0.012-0.022,0.034-0.043,0.069-0.06s0.079-0.028,0.133-0.034c0.055-0.007,0.12-0.01,0.197-0.01c0.081,0,0.147,0.003,0.199,0.01    c0.053,0.006,0.096,0.018,0.131,0.034c0.034,0.017,0.059,0.037,0.072,0.06c0.014,0.023,0.021,0.054,0.021,0.092v0.761    c0.158-0.176,0.311-0.329,0.457-0.459c0.146-0.13,0.294-0.238,0.442-0.324s0.302-0.15,0.458-0.195    c0.156-0.044,0.321-0.065,0.494-0.065c0.379,0,0.701,0.079,0.967,0.239c0.267,0.159,0.483,0.377,0.651,0.654    c0.168,0.276,0.291,0.599,0.366,0.966C44.629,25.738,44.667,26.128,44.667,26.539z M43.678,26.658c0-0.289-0.021-0.569-0.062-0.84    s-0.11-0.511-0.21-0.721c-0.099-0.209-0.231-0.377-0.398-0.503c-0.167-0.126-0.375-0.188-0.623-0.188    c-0.125,0-0.247,0.02-0.367,0.06s-0.243,0.103-0.367,0.188c-0.124,0.085-0.254,0.199-0.391,0.34    c-0.136,0.141-0.279,0.313-0.431,0.52v2.252c0.265,0.348,0.515,0.614,0.751,0.798c0.237,0.186,0.486,0.276,0.746,0.276    c0.24,0,0.447-0.063,0.62-0.188c0.173-0.125,0.313-0.292,0.42-0.502c0.106-0.21,0.185-0.444,0.235-0.705    C43.652,27.185,43.678,26.923,43.678,26.658z"/><path d="M49.721,29.465c0,0.051-0.017,0.088-0.048,0.113c-0.03,0.025-0.073,0.043-0.127,0.057c-0.055,0.012-0.133,0.02-0.237,0.02    c-0.101,0-0.181-0.008-0.24-0.02c-0.061-0.014-0.104-0.031-0.131-0.057c-0.024-0.025-0.039-0.063-0.039-0.113v-0.566    c-0.229,0.266-0.48,0.472-0.763,0.617c-0.278,0.146-0.575,0.219-0.888,0.219c-0.273,0-0.521-0.036-0.744-0.113    c-0.222-0.078-0.411-0.189-0.566-0.338c-0.155-0.146-0.277-0.326-0.364-0.541s-0.132-0.457-0.132-0.729    c0-0.318,0.062-0.596,0.182-0.83c0.119-0.235,0.291-0.43,0.516-0.585c0.225-0.155,0.497-0.271,0.821-0.35    c0.324-0.077,0.688-0.116,1.097-0.116h0.717v-0.44c0-0.218-0.021-0.411-0.063-0.579c-0.042-0.168-0.11-0.307-0.205-0.418    c-0.095-0.111-0.217-0.195-0.368-0.252c-0.15-0.057-0.335-0.085-0.556-0.085c-0.235,0-0.446,0.03-0.634,0.092    c-0.188,0.061-0.352,0.128-0.492,0.201c-0.141,0.073-0.258,0.141-0.354,0.201s-0.164,0.091-0.211,0.091    c-0.031,0-0.06-0.008-0.082-0.025c-0.021-0.017-0.043-0.041-0.062-0.075c-0.019-0.033-0.029-0.076-0.037-0.129    c-0.008-0.053-0.012-0.11-0.012-0.173c0-0.104,0.007-0.188,0.021-0.249s0.047-0.118,0.1-0.173c0.053-0.054,0.143-0.118,0.27-0.191    c0.127-0.073,0.273-0.141,0.439-0.201c0.166-0.062,0.348-0.111,0.545-0.151c0.195-0.04,0.396-0.06,0.596-0.06    c0.375,0,0.693,0.046,0.955,0.139c0.263,0.092,0.475,0.228,0.637,0.405c0.162,0.179,0.28,0.399,0.354,0.664    c0.074,0.264,0.111,0.572,0.111,0.925v3.817L49.721,29.465L49.721,29.465z M48.771,26.879h-0.816c-0.264,0-0.49,0.023-0.684,0.072    c-0.192,0.048-0.354,0.119-0.48,0.214c-0.127,0.094-0.221,0.207-0.279,0.34c-0.062,0.132-0.091,0.284-0.091,0.456    c0,0.293,0.086,0.527,0.259,0.701c0.17,0.174,0.41,0.261,0.721,0.261c0.25,0,0.482-0.067,0.697-0.207    c0.213-0.139,0.438-0.351,0.674-0.636V26.879L48.771,26.879z"/><path d="M53.318,29.615l-0.694,2.082c-0.022,0.068-0.082,0.119-0.177,0.154c-0.096,0.034-0.238,0.055-0.432,0.055    c-0.102,0-0.183-0.006-0.244-0.018c-0.063-0.012-0.107-0.027-0.143-0.055c-0.031-0.023-0.051-0.061-0.055-0.102    c-0.006-0.043,0.006-0.092,0.027-0.15l0.719-1.969c-0.034-0.018-0.066-0.045-0.1-0.082c-0.031-0.037-0.052-0.077-0.063-0.119    L50.3,24.001c-0.03-0.088-0.047-0.157-0.047-0.207c0-0.051,0.017-0.091,0.047-0.12c0.03-0.029,0.081-0.049,0.15-0.06    c0.069-0.011,0.161-0.016,0.278-0.016c0.114,0,0.205,0.003,0.271,0.01c0.065,0.006,0.118,0.018,0.155,0.034    c0.039,0.017,0.066,0.041,0.085,0.072c0.018,0.031,0.036,0.074,0.055,0.129l1.488,4.543H52.8l1.437-4.568    c0.021-0.079,0.052-0.131,0.084-0.153c0.031-0.023,0.082-0.04,0.146-0.051c0.065-0.011,0.16-0.016,0.283-0.016    c0.107,0,0.197,0.005,0.268,0.016c0.069,0.011,0.119,0.03,0.152,0.06c0.033,0.03,0.049,0.069,0.049,0.12    c0,0.05-0.011,0.113-0.033,0.188L53.318,29.615z"/><path d="M63.73,29.458c0,0.034-0.008,0.062-0.022,0.085s-0.04,0.043-0.075,0.061s-0.083,0.029-0.145,0.037    c-0.063,0.008-0.141,0.014-0.231,0.014c-0.097,0-0.176-0.006-0.237-0.014c-0.063-0.008-0.109-0.021-0.146-0.037    c-0.036-0.018-0.063-0.037-0.078-0.061s-0.021-0.051-0.021-0.085v-3.441c0-0.239-0.021-0.457-0.06-0.654    c-0.038-0.197-0.1-0.367-0.187-0.51c-0.084-0.143-0.191-0.252-0.322-0.327c-0.132-0.075-0.286-0.113-0.463-0.113    c-0.223,0-0.441,0.093-0.663,0.277c-0.224,0.184-0.468,0.455-0.731,0.812v3.957c0,0.034-0.009,0.063-0.022,0.085    c-0.015,0.022-0.041,0.043-0.078,0.062c-0.036,0.017-0.086,0.028-0.147,0.037c-0.061,0.008-0.139,0.012-0.229,0.012    s-0.165-0.004-0.229-0.012c-0.063-0.009-0.115-0.021-0.149-0.037c-0.037-0.019-0.063-0.037-0.075-0.062    c-0.016-0.022-0.021-0.051-0.021-0.085v-3.441c0-0.239-0.021-0.457-0.063-0.654c-0.043-0.197-0.105-0.367-0.189-0.51    c-0.086-0.143-0.193-0.252-0.322-0.327c-0.129-0.075-0.281-0.113-0.459-0.113c-0.221,0-0.442,0.093-0.666,0.277    c-0.225,0.184-0.467,0.455-0.729,0.812v3.957c0,0.034-0.008,0.062-0.022,0.085c-0.016,0.023-0.041,0.043-0.074,0.061    c-0.034,0.018-0.083,0.029-0.146,0.037c-0.062,0.008-0.141,0.015-0.236,0.015c-0.094,0-0.17-0.007-0.23-0.015    s-0.109-0.021-0.146-0.037c-0.037-0.018-0.063-0.037-0.074-0.061c-0.014-0.023-0.021-0.051-0.021-0.085v-5.662    c0-0.034,0.006-0.063,0.019-0.085c0.013-0.023,0.034-0.044,0.069-0.063s0.078-0.031,0.133-0.037    c0.056-0.007,0.125-0.01,0.216-0.01c0.084,0,0.153,0.003,0.211,0.01c0.056,0.006,0.101,0.019,0.131,0.037    c0.028,0.02,0.054,0.04,0.065,0.063c0.014,0.022,0.021,0.051,0.021,0.085v0.748c0.294-0.356,0.578-0.617,0.854-0.783    c0.274-0.165,0.555-0.248,0.836-0.248c0.217,0,0.41,0.027,0.582,0.082c0.172,0.054,0.322,0.131,0.455,0.229    c0.131,0.099,0.242,0.216,0.336,0.353c0.092,0.136,0.17,0.288,0.229,0.456c0.175-0.206,0.339-0.38,0.495-0.522    c0.154-0.142,0.307-0.258,0.452-0.346c0.146-0.089,0.284-0.152,0.422-0.192c0.137-0.04,0.274-0.06,0.414-0.06    c0.336,0,0.616,0.063,0.846,0.191s0.411,0.299,0.554,0.513c0.141,0.214,0.239,0.465,0.301,0.752    c0.061,0.288,0.09,0.591,0.09,0.909v3.578H63.73z"/><path d="M69.611,26.382c0,0.163-0.038,0.279-0.113,0.349c-0.076,0.069-0.162,0.104-0.259,0.104h-3.433    c0,0.315,0.028,0.598,0.088,0.85c0.059,0.252,0.154,0.468,0.291,0.648c0.135,0.181,0.313,0.317,0.528,0.415    s0.481,0.145,0.797,0.145c0.248,0,0.47-0.021,0.663-0.064s0.361-0.094,0.503-0.146c0.144-0.055,0.259-0.104,0.351-0.146    c0.092-0.044,0.16-0.066,0.207-0.066c0.025,0,0.051,0.008,0.072,0.022c0.021,0.014,0.036,0.036,0.049,0.065    c0.013,0.027,0.021,0.068,0.025,0.121c0.005,0.055,0.01,0.116,0.01,0.191c0,0.055-0.002,0.104-0.007,0.143    c-0.004,0.039-0.009,0.075-0.015,0.106c-0.006,0.03-0.018,0.06-0.029,0.085c-0.013,0.023-0.029,0.05-0.052,0.07    c-0.021,0.023-0.084,0.063-0.188,0.113c-0.104,0.053-0.24,0.104-0.406,0.154s-0.355,0.096-0.574,0.136    c-0.219,0.039-0.45,0.06-0.697,0.06c-0.428,0-0.804-0.063-1.126-0.193c-0.321-0.13-0.593-0.322-0.813-0.579    c-0.221-0.256-0.387-0.577-0.498-0.963c-0.11-0.386-0.168-0.834-0.168-1.346c0-0.487,0.06-0.924,0.176-1.313    c0.113-0.388,0.281-0.717,0.5-0.987c0.219-0.271,0.48-0.479,0.79-0.623c0.31-0.145,0.653-0.217,1.034-0.217    c0.41,0,0.76,0.071,1.047,0.214s0.523,0.334,0.71,0.575c0.185,0.241,0.319,0.524,0.407,0.85c0.086,0.325,0.129,0.672,0.129,1.041    v0.187H69.611z M68.65,26.073c0.012-0.545-0.103-0.973-0.336-1.283c-0.234-0.311-0.582-0.466-1.045-0.466    c-0.236,0-0.444,0.048-0.623,0.145c-0.181,0.097-0.328,0.225-0.448,0.384s-0.214,0.345-0.279,0.557s-0.104,0.434-0.11,0.664    L68.65,26.073L68.65,26.073z"/><path d="M75.242,29.458c0,0.034-0.008,0.062-0.023,0.085c-0.015,0.023-0.039,0.043-0.074,0.061s-0.084,0.029-0.146,0.037    s-0.14,0.014-0.231,0.014c-0.097,0-0.176-0.006-0.235-0.014s-0.11-0.021-0.146-0.037c-0.034-0.018-0.061-0.037-0.075-0.061    c-0.016-0.023-0.021-0.051-0.021-0.085v-3.315c0-0.323-0.021-0.583-0.069-0.78c-0.047-0.197-0.112-0.367-0.202-0.51    s-0.203-0.252-0.345-0.327c-0.144-0.075-0.305-0.113-0.487-0.113c-0.24,0-0.479,0.093-0.72,0.277    c-0.237,0.184-0.489,0.455-0.753,0.812v3.957c0,0.034-0.008,0.063-0.021,0.085c-0.017,0.022-0.041,0.043-0.075,0.062    c-0.034,0.017-0.083,0.028-0.146,0.037c-0.062,0.008-0.141,0.012-0.235,0.012c-0.094,0-0.17-0.004-0.231-0.012    c-0.062-0.009-0.11-0.021-0.147-0.037c-0.037-0.019-0.062-0.037-0.073-0.062c-0.015-0.024-0.021-0.051-0.021-0.085v-5.662    c0-0.034,0.007-0.063,0.019-0.085c0.013-0.023,0.035-0.044,0.07-0.063c0.033-0.019,0.077-0.031,0.133-0.037    c0.055-0.007,0.125-0.01,0.215-0.01c0.084,0,0.154,0.003,0.211,0.01c0.056,0.006,0.1,0.019,0.13,0.037    c0.03,0.02,0.054,0.04,0.065,0.063c0.014,0.022,0.021,0.051,0.021,0.085v0.748c0.294-0.356,0.586-0.617,0.877-0.783    c0.292-0.165,0.586-0.248,0.883-0.248c0.349,0,0.642,0.063,0.877,0.191c0.237,0.128,0.431,0.299,0.576,0.513    c0.146,0.214,0.252,0.465,0.313,0.752c0.063,0.288,0.098,0.633,0.098,1.035v3.453H75.242z"/><path d="M79.275,29.043c0,0.121-0.008,0.219-0.023,0.289c-0.016,0.072-0.038,0.124-0.068,0.158    c-0.031,0.033-0.078,0.064-0.14,0.094c-0.062,0.03-0.132,0.055-0.211,0.072c-0.079,0.02-0.163,0.035-0.252,0.047    c-0.089,0.014-0.179,0.02-0.267,0.02c-0.271,0-0.502-0.039-0.694-0.117c-0.193-0.076-0.353-0.192-0.476-0.352    c-0.123-0.158-0.213-0.357-0.271-0.598c-0.058-0.241-0.084-0.525-0.084-0.853v-3.31h-0.729c-0.059,0-0.104-0.034-0.14-0.101    c-0.034-0.067-0.052-0.177-0.052-0.327c0-0.08,0.005-0.147,0.016-0.201c0.008-0.055,0.021-0.1,0.036-0.136    c0.017-0.035,0.035-0.061,0.062-0.075c0.025-0.014,0.055-0.022,0.084-0.022h0.725v-1.346c0-0.029,0.007-0.057,0.021-0.082    s0.039-0.048,0.076-0.066c0.035-0.018,0.086-0.032,0.146-0.041c0.063-0.008,0.139-0.013,0.229-0.013    c0.098,0,0.176,0.005,0.237,0.013c0.062,0.009,0.11,0.022,0.146,0.041c0.037,0.019,0.062,0.041,0.076,0.066    c0.016,0.025,0.021,0.053,0.021,0.082v1.346h1.338c0.029,0,0.059,0.008,0.081,0.022c0.022,0.015,0.043,0.04,0.062,0.075    c0.019,0.036,0.028,0.081,0.037,0.136c0.008,0.054,0.012,0.121,0.012,0.201c0,0.15-0.019,0.26-0.053,0.327    c-0.035,0.066-0.08,0.101-0.139,0.101h-1.338v3.158c0,0.39,0.054,0.685,0.158,0.884c0.106,0.199,0.298,0.299,0.57,0.299    c0.09,0,0.168-0.01,0.236-0.027c0.068-0.019,0.132-0.039,0.188-0.061c0.054-0.021,0.101-0.041,0.139-0.061    c0.039-0.021,0.072-0.027,0.104-0.027c0.021,0,0.037,0.005,0.055,0.016c0.02,0.012,0.031,0.03,0.041,0.061    c0.011,0.029,0.02,0.068,0.025,0.119C79.271,28.904,79.275,28.967,79.275,29.043z"/><path d="M83.5,27.917c0,0.289-0.049,0.547-0.146,0.772c-0.099,0.227-0.237,0.418-0.42,0.574c-0.183,0.152-0.396,0.271-0.647,0.352    c-0.251,0.08-0.526,0.119-0.828,0.119c-0.187,0-0.36-0.018-0.528-0.047c-0.169-0.031-0.318-0.071-0.451-0.119    c-0.135-0.049-0.246-0.101-0.338-0.15c-0.095-0.053-0.16-0.1-0.203-0.143s-0.074-0.103-0.094-0.176    c-0.02-0.076-0.027-0.181-0.027-0.311c0-0.08,0.004-0.146,0.012-0.201s0.018-0.099,0.027-0.132    c0.013-0.034,0.027-0.058,0.051-0.072c0.021-0.014,0.045-0.022,0.072-0.022c0.041,0,0.104,0.028,0.188,0.085    c0.083,0.057,0.186,0.118,0.307,0.186s0.267,0.131,0.432,0.188c0.166,0.057,0.356,0.084,0.572,0.084    c0.162,0,0.311-0.02,0.44-0.057c0.131-0.037,0.245-0.095,0.342-0.166c0.097-0.074,0.171-0.166,0.224-0.281    c0.053-0.113,0.078-0.248,0.078-0.403c0-0.159-0.039-0.293-0.112-0.402c-0.075-0.109-0.177-0.205-0.3-0.289    s-0.263-0.158-0.416-0.224s-0.313-0.133-0.479-0.204c-0.165-0.071-0.324-0.152-0.48-0.243c-0.154-0.09-0.295-0.2-0.42-0.33    c-0.123-0.13-0.223-0.285-0.297-0.465c-0.076-0.181-0.113-0.396-0.113-0.648c0-0.223,0.039-0.436,0.119-0.639    c0.078-0.203,0.196-0.382,0.354-0.535c0.159-0.152,0.356-0.275,0.595-0.367c0.236-0.093,0.514-0.139,0.83-0.139    c0.139,0,0.277,0.013,0.417,0.037c0.14,0.025,0.265,0.057,0.376,0.095s0.207,0.079,0.286,0.123s0.14,0.083,0.181,0.116    c0.039,0.033,0.066,0.063,0.08,0.088c0.014,0.025,0.023,0.054,0.029,0.085c0.006,0.031,0.012,0.07,0.018,0.116    c0.006,0.047,0.008,0.104,0.008,0.17c0,0.071-0.002,0.134-0.008,0.186c-0.006,0.053-0.016,0.096-0.027,0.129    c-0.016,0.034-0.03,0.058-0.051,0.072c-0.02,0.016-0.041,0.022-0.063,0.022c-0.033,0-0.085-0.023-0.148-0.069    c-0.065-0.046-0.15-0.096-0.256-0.147c-0.104-0.053-0.228-0.102-0.367-0.148c-0.143-0.046-0.301-0.069-0.482-0.069    c-0.162,0-0.305,0.021-0.43,0.061c-0.123,0.04-0.225,0.097-0.303,0.17c-0.08,0.073-0.141,0.16-0.182,0.261    c-0.04,0.101-0.063,0.21-0.063,0.327c0,0.163,0.039,0.301,0.117,0.412c0.076,0.111,0.176,0.209,0.301,0.293    c0.123,0.084,0.265,0.159,0.423,0.226c0.157,0.067,0.317,0.137,0.481,0.208c0.164,0.071,0.326,0.151,0.486,0.239    c0.16,0.088,0.303,0.195,0.426,0.32c0.124,0.126,0.223,0.277,0.299,0.453C83.462,27.464,83.5,27.674,83.5,27.917z"/></g><path d="M20.831,26.853c0,0.421,0.01,0.771-0.202,1.146c-0.171,0.304-0.444,0.49-0.747,0.49   c-0.414,0-0.656-0.315-0.656-0.782c0-0.92,0.824-1.087,1.605-1.087V26.853z" fill="#F1F2F2"/><path d="M6.681,26.853c0,0.421,0.01,0.771-0.202,1.146c-0.171,0.304-0.444,0.49-0.747,0.49   c-0.414,0-0.656-0.315-0.656-0.782c0-0.92,0.825-1.087,1.605-1.087V26.853z" fill="#F1F2F2"/></g></svg>